<?xml version="1.0" encoding="utf-8"?>
<!-- Generator: Adobe Illustrator 24.1.1, SVG Export Plug-In . SVG Version: 6.00 Build 0)  -->
<svg version="1.1" id="Layer_1" xmlns="http://www.w3.org/2000/svg" xmlns:xlink="http://www.w3.org/1999/xlink" x="0px" y="0px"
	 viewBox="0 0 32 32" style="enable-background:new 0 0 32 32;" xml:space="preserve">
<style type="text/css">
	.st0{fill:url(#SVGID_1_);}
	.st1{fill:url(#SVGID_2_);}
	.st2{fill:url(#SVGID_3_);}
	.st3{fill:url(#SVGID_4_);}
	.st4{fill:url(#SVGID_5_);}
	.st5{fill:url(#SVGID_6_);}
	.st6{fill:url(#SVGID_7_);}
	.st7{fill:url(#SVGID_8_);}
	.st8{fill:url(#SVGID_9_);}
	.st9{fill:url(#SVGID_10_);}
	.st10{fill:url(#SVGID_11_);}
	.st11{fill:url(#SVGID_12_);}
	.st12{fill:url(#SVGID_13_);}
	.st13{fill:url(#SVGID_14_);}
	.st14{fill:url(#SVGID_15_);}
	.st15{fill:url(#SVGID_16_);}
	.st16{fill:url(#SVGID_17_);}
	.st17{fill:url(#SVGID_18_);}
</style>
<g transform="scale(2) translate(0, 0)">
	<g>
		<linearGradient id="SVGID_1_" gradientUnits="userSpaceOnUse" x1="9.4257" y1="5.2303" x2="9.4257" y2="7.9857">
			<stop  offset="0" style="stop-color:#241796"/>
			<stop  offset="0.1803" style="stop-color:#1D3B9F"/>
			<stop  offset="0.7476" style="stop-color:#08A8BA"/>
			<stop  offset="1" style="stop-color:#00D3C5"/>
		</linearGradient>
		<path class="st0" d="M8.9,5.8c0.2-0.1,0.4-0.1,0.6-0.1c0.4,0.1,0.6,0.3,0.7,0.7c0,0.1,0,0.2,0,0.4c0,0.3,0,0.7,0,1.2c0,0,0,0,0,0
			H9.6c0,0,0,0,0,0l0,0c0-0.6,0-1.1,0-1.3c0-0.2-0.2-0.4-0.4-0.4c0,0-0.1,0-0.1,0C9,6.3,8.9,6.2,8.8,6.1c0,0,0-0.1,0-0.1V4.4
			c0,0,0,0,0,0C8.6,4.4,8.5,4.3,8.5,4.2c0-0.4,0.6-0.4,0.6,0c0,0.1-0.1,0.2-0.2,0.2c0,0,0,0,0,0L8.9,5.8C8.9,5.8,8.9,5.8,8.9,5.8
			C8.9,5.8,8.9,5.8,8.9,5.8z M9,4.1C9,4.1,8.9,4,8.8,4l0,0C8.7,4,8.7,4.1,8.7,4.1l0,0c0,0.1,0.1,0.1,0.1,0.1l0,0
			C8.9,4.3,9,4.2,9,4.1L9,4.1z"/>
		<linearGradient id="SVGID_2_" gradientUnits="userSpaceOnUse" x1="8.4067" y1="5.2303" x2="8.4067" y2="7.9857">
			<stop  offset="0" style="stop-color:#241796"/>
			<stop  offset="0.1803" style="stop-color:#1D3B9F"/>
			<stop  offset="0.7476" style="stop-color:#08A8BA"/>
			<stop  offset="1" style="stop-color:#00D3C5"/>
		</linearGradient>
		<path class="st1" d="M8.1,5.1v1.1c0,0,0,0.1,0,0.1L8.9,7c0,0,0,0,0,0.1v1.8c0,0,0,0,0,0C9.1,9,9.2,9.2,9.1,9.3
			C8.9,9.5,8.6,9.4,8.6,9.2c0-0.1,0.1-0.2,0.2-0.3c0,0,0,0,0,0V7.1c0,0,0,0,0,0L7.9,6.2c0,0,0,0,0-0.1V5.1c0,0,0,0,0,0
			C7.5,4.9,7.7,4.3,8.1,4.5c0.1,0,0.1,0.1,0.1,0.2C8.3,4.8,8.2,5,8.1,5.1C8.1,5,8.1,5,8.1,5.1z M8.1,4.8C8.1,4.7,8,4.6,8,4.6l0,0
			c-0.1,0-0.1,0.1-0.1,0.1l0,0c0,0.1,0.1,0.1,0.1,0.1l0,0C8,4.9,8.1,4.8,8.1,4.8L8.1,4.8z M9,9.2C9,9.1,8.9,9,8.8,9h0
			C8.8,9,8.7,9.1,8.7,9.2l0,0c0,0.1,0.1,0.1,0.1,0.1h0C8.9,9.3,9,9.2,9,9.2L9,9.2z"/>
		<linearGradient id="SVGID_3_" gradientUnits="userSpaceOnUse" x1="8.6968" y1="5.2303" x2="8.6968" y2="7.9857">
			<stop  offset="0" style="stop-color:#241796"/>
			<stop  offset="0.1803" style="stop-color:#1D3B9F"/>
			<stop  offset="0.7476" style="stop-color:#08A8BA"/>
			<stop  offset="1" style="stop-color:#00D3C5"/>
		</linearGradient>
		<path class="st2" d="M9.1,6.6c0,0,0,0.1,0,0.1c0,0-0.1,0-0.1,0C8.8,6.6,8.6,6.4,8.4,6.1c0,0,0,0,0,0V5.3c0,0,0,0,0,0
			C8.3,5.2,8.3,5,8.4,5c0.1,0,0.1,0.1,0.1,0.2c0,0,0,0,0,0l0,0c0,0,0,0,0,0V6c0,0,0,0,0,0L9,6.5c0,0,0,0,0,0L9.1,6.6
			C9.1,6.6,9.1,6.6,9.1,6.6z"/>
		<linearGradient id="SVGID_4_" gradientUnits="userSpaceOnUse" x1="1.3792" y1="5.2303" x2="1.3792" y2="7.9857">
			<stop  offset="0" style="stop-color:#241796"/>
			<stop  offset="0.1803" style="stop-color:#1D3B9F"/>
			<stop  offset="0.7476" style="stop-color:#08A8BA"/>
			<stop  offset="1" style="stop-color:#00D3C5"/>
		</linearGradient>
		<path class="st3" d="M1.4,5.2c0.4,0,0.9,0,1.3,0c0,0,0,0,0,0v0v0.6c0,0,0,0,0,0l0,0H1.8c0,0,0,0,0,0v2.3c0,0,0,0,0,0c0,0,0,0,0,0
			c0,0-0.1,0-0.3,0c-0.2,0-0.3,0-0.3,0c0,0,0,0,0,0c0,0,0,0,0,0l0-2.3c0,0,0,0,0,0l-0.9,0c0,0,0,0,0,0c0,0,0,0,0,0l0-0.6
			c0,0,0,0,0,0h0C0.5,5.2,1,5.2,1.4,5.2z"/>
		<linearGradient id="SVGID_5_" gradientUnits="userSpaceOnUse" x1="15.8903" y1="5.2303" x2="15.8903" y2="7.9857">
			<stop  offset="0" style="stop-color:#241796"/>
			<stop  offset="0.1803" style="stop-color:#1D3B9F"/>
			<stop  offset="0.7476" style="stop-color:#08A8BA"/>
			<stop  offset="1" style="stop-color:#00D3C5"/>
		</linearGradient>
		<path class="st4" d="M15.9,5.2L15.9,5.2C15.9,5.2,15.9,5.2,15.9,5.2l0.1,2.9c0,0,0,0,0,0l0,0c0,0,0,0,0,0L15.9,5.2
			C15.8,5.2,15.9,5.2,15.9,5.2z"/>
		<linearGradient id="SVGID_6_" gradientUnits="userSpaceOnUse" x1="6.8644" y1="5.2303" x2="6.8644" y2="7.9857">
			<stop  offset="0" style="stop-color:#241796"/>
			<stop  offset="0.1803" style="stop-color:#1D3B9F"/>
			<stop  offset="0.7476" style="stop-color:#08A8BA"/>
			<stop  offset="1" style="stop-color:#00D3C5"/>
		</linearGradient>
		<path class="st5" d="M7.6,7.6C7.6,7.6,7.6,7.6,7.6,7.6C7.3,8.1,6.7,8.3,6.1,8.1C5.6,8,5.3,7.6,5.2,7.1C5.1,6.2,5.9,5.6,6.8,5.7
			C7.1,5.8,7.4,6,7.6,6.2c0.1,0.1,0.1,0.1,0.2,0.2C8,6.7,8.2,6.9,8.5,7.1c0,0,0,0,0,0.1c0,0,0,0,0,0.1c0,0.3,0,0.6,0,0.8
			c0,0,0,0,0,0.1c0,0,0,0-0.1,0c0,0-0.1,0-0.1,0c0,0,0,0,0-0.1c0-0.3,0-0.5,0-0.8c0,0,0,0,0,0c0,0,0,0,0,0C8.2,7.1,8.1,7,8,6.8
			C7.9,6.8,7.8,6.7,7.8,6.7c0-0.1-0.1-0.1-0.1-0.2c0-0.1-0.1-0.1-0.1,0c-0.1,0-0.1,0-0.2,0C7.2,6.5,7.1,6.6,7,6.6c0,0,0,0-0.1,0
			c-0.2-0.4-0.7-0.4-0.9,0C5.9,6.9,6,7.4,6.4,7.5c0.3,0.1,0.5,0,0.7-0.3c0,0,0,0,0,0L7.6,7.6z"/>
		<linearGradient id="SVGID_7_" gradientUnits="userSpaceOnUse" x1="3.815" y1="5.2303" x2="3.815" y2="7.9857">
			<stop  offset="0" style="stop-color:#241796"/>
			<stop  offset="0.1803" style="stop-color:#1D3B9F"/>
			<stop  offset="0.7476" style="stop-color:#08A8BA"/>
			<stop  offset="1" style="stop-color:#00D3C5"/>
		</linearGradient>
		<path class="st6" d="M5,7.2H3.3c0,0,0,0,0,0c0,0,0,0,0,0c0,0,0,0.1,0,0.1c0.2,0.4,0.8,0.4,1.1,0.1c0,0,0,0,0.1,0l0.3,0.3
			c0,0,0,0.1,0,0.1C4.3,8.4,3.2,8.3,2.7,7.6C2.4,7,2.6,6.3,3.1,5.9c0.4-0.3,1-0.3,1.4,0C4.9,6.2,5.1,6.6,5,7.2C5,7.2,5,7.2,5,7.2z
			 M3.3,6.7l1,0c0,0,0,0,0,0l0,0v0c0-0.2-0.2-0.4-0.5-0.4c0,0,0,0,0,0h0C3.5,6.3,3.3,6.5,3.3,6.7L3.3,6.7C3.3,6.7,3.3,6.7,3.3,6.7
			L3.3,6.7z"/>
		<linearGradient id="SVGID_8_" gradientUnits="userSpaceOnUse" x1="11.6261" y1="5.2303" x2="11.6261" y2="7.9857">
			<stop  offset="0" style="stop-color:#241796"/>
			<stop  offset="0.1803" style="stop-color:#1D3B9F"/>
			<stop  offset="0.7476" style="stop-color:#08A8BA"/>
			<stop  offset="1" style="stop-color:#00D3C5"/>
		</linearGradient>
		<path class="st7" d="M12.4,6.4c-0.3-0.1-0.7-0.2-0.9-0.1c-0.1,0-0.2,0.1-0.1,0.2c0,0,0,0,0,0c0.1,0,0.1,0.1,0.2,0.1
			c0.5,0.1,1.3,0.1,1.2,0.8c-0.1,0.4-0.5,0.6-0.9,0.7c-0.4,0-0.8,0-1.2-0.2c0,0,0,0,0-0.1l0.2-0.5c0,0,0,0,0,0c0,0,0,0,0,0
			c0.3,0.2,0.6,0.2,0.9,0.2c0.1,0,0.4-0.1,0.3-0.3c0,0,0,0,0,0c-0.1,0-0.1-0.1-0.2-0.1c-0.4-0.1-1.1-0.1-1.2-0.7
			c0-0.6,0.6-0.9,1.1-0.9c0.3,0,0.6,0.1,0.8,0.2c0,0,0,0,0,0.1c0,0,0,0,0,0L12.4,6.4C12.4,6.4,12.4,6.4,12.4,6.4
			C12.4,6.4,12.4,6.4,12.4,6.4z"/>
		<linearGradient id="SVGID_9_" gradientUnits="userSpaceOnUse" x1="13.9583" y1="5.2303" x2="13.9583" y2="7.9857">
			<stop  offset="0" style="stop-color:#241796"/>
			<stop  offset="0.1803" style="stop-color:#1D3B9F"/>
			<stop  offset="0.7476" style="stop-color:#08A8BA"/>
			<stop  offset="1" style="stop-color:#00D3C5"/>
		</linearGradient>
		<path class="st8" d="M14.4,7.9C14.4,7.9,14.4,7.9,14.4,7.9C14.4,7.9,14.4,7.9,14.4,7.9c-0.3,0.3-0.8,0.3-1.1,0.2
			C13,8,12.8,7.8,12.8,7.4c0-0.4,0.4-0.6,0.8-0.7c0.2,0,0.4,0,0.7,0c0,0,0,0,0,0c0,0,0,0,0,0c0-0.6-0.8-0.4-1.1-0.2c0,0,0,0,0,0
			c0,0,0,0,0,0L13,6c0,0,0,0,0,0c0.5-0.3,1.3-0.3,1.7,0c0.4,0.3,0.3,0.7,0.3,1.1c0,0.4,0,0.7,0,1.1c0,0,0,0,0,0h-0.6c0,0,0,0,0,0
			l0,0V7.9z M14.3,7.2c-0.3,0-0.4,0-0.6,0c-0.3,0.1-0.3,0.4,0,0.5c0.1,0,0.2,0,0.3,0C14.3,7.6,14.4,7.4,14.3,7.2
			C14.3,7.2,14.3,7.2,14.3,7.2z"/>
		<linearGradient id="SVGID_10_" gradientUnits="userSpaceOnUse" x1="7.8046" y1="5.2303" x2="7.8046" y2="7.9857">
			<stop  offset="0" style="stop-color:#241796"/>
			<stop  offset="0.1803" style="stop-color:#1D3B9F"/>
			<stop  offset="0.7476" style="stop-color:#08A8BA"/>
			<stop  offset="1" style="stop-color:#00D3C5"/>
		</linearGradient>
		<path class="st9" d="M7.4,6.8C7.3,6.7,7.3,6.7,7.4,6.8C7.4,6.7,7.4,6.7,7.4,6.8L7.4,6.8c0.1-0.1,0.1-0.1,0.1-0.1L8,7.2
			c0,0,0,0,0,0l0,0.9c0,0,0,0,0,0.1c0,0,0.1,0,0.1,0.1c0.2,0.2,0.1,0.4-0.1,0.5C7.7,8.9,7.5,8.4,7.9,8.2c0,0,0,0,0,0V7.3
			c0,0,0,0,0,0L7.4,6.8z M7.8,8.5c0,0.1,0,0.1,0.1,0.2h0c0.1,0,0.2,0,0.2-0.1l0,0c0-0.1,0-0.1-0.1-0.2C7.9,8.4,7.8,8.4,7.8,8.5z"/>
	</g>
	<g>
		<linearGradient id="SVGID_11_" gradientUnits="userSpaceOnUse" x1="4.0284" y1="8.3551" x2="4.0284" y2="12.2614">
			<stop  offset="0" style="stop-color:#241796"/>
			<stop  offset="0.1803" style="stop-color:#1D3B9F"/>
			<stop  offset="0.7476" style="stop-color:#08A8BA"/>
			<stop  offset="1" style="stop-color:#00D3C5"/>
		</linearGradient>
		<path class="st10" d="M5.3,11.5H3.7c0,0,0,0,0,0c0,0,0,0,0,0l1.5-1.9c0,0,0,0,0,0V9.2c0,0,0,0,0,0H2.8c0,0,0,0,0,0v0.5
			c0,0,0,0,0,0h1.4c0,0,0,0,0,0c0,0,0,0,0,0l-1.5,1.8c0,0,0,0,0,0v0.4c0,0,0,0,0,0h2.5c0,0,0,0,0,0L5.3,11.5
			C5.3,11.5,5.3,11.5,5.3,11.5z"/>
		<linearGradient id="SVGID_12_" gradientUnits="userSpaceOnUse" x1="5.8319" y1="8.3551" x2="5.8319" y2="12.2614">
			<stop  offset="0" style="stop-color:#241796"/>
			<stop  offset="0.1803" style="stop-color:#1D3B9F"/>
			<stop  offset="0.7476" style="stop-color:#08A8BA"/>
			<stop  offset="1" style="stop-color:#00D3C5"/>
		</linearGradient>
		<path class="st11" d="M5.4,10.7l0.3,0c0,0,0,0,0,0c0-0.1,0.1-0.3,0.2-0.4C6,10.2,6.2,10,6.3,10c0,0,0,0,0,0l0-0.3c0,0,0,0,0,0
			c0,0,0,0,0,0C6,9.7,5.8,9.8,5.7,10C5.5,10.2,5.4,10.4,5.4,10.7C5.3,10.7,5.3,10.7,5.4,10.7C5.3,10.7,5.3,10.7,5.4,10.7z"/>
		<linearGradient id="SVGID_13_" gradientUnits="userSpaceOnUse" x1="7.2609" y1="8.3551" x2="7.2609" y2="12.2614">
			<stop  offset="0" style="stop-color:#241796"/>
			<stop  offset="0.1803" style="stop-color:#1D3B9F"/>
			<stop  offset="0.7476" style="stop-color:#08A8BA"/>
			<stop  offset="1" style="stop-color:#00D3C5"/>
		</linearGradient>
		<path class="st12" d="M6.8,10c0.1,0,0.3,0.1,0.4,0.2c0.1,0.1,0.2,0.3,0.2,0.4c0,0,0,0,0,0h0.3c0,0,0,0,0,0c0,0,0,0,0,0
			c-0.1-0.2-0.2-0.5-0.3-0.6C7.3,9.8,7,9.7,6.8,9.7c0,0,0,0,0,0c0,0,0,0,0,0L6.8,10C6.8,10,6.8,10,6.8,10z"/>
		<linearGradient id="SVGID_14_" gradientUnits="userSpaceOnUse" x1="9.2765" y1="8.3551" x2="9.2765" y2="12.2614">
			<stop  offset="0" style="stop-color:#241796"/>
			<stop  offset="0.1803" style="stop-color:#1D3B9F"/>
			<stop  offset="0.7476" style="stop-color:#08A8BA"/>
			<stop  offset="1" style="stop-color:#00D3C5"/>
		</linearGradient>
		<path class="st13" d="M9.6,9.7c-0.3,0-0.6,0-0.8,0.3c0,0,0,0,0,0c0,0,0,0,0,0V9.8c0,0,0,0,0,0H8.1c0,0,0,0,0,0v2.3c0,0,0,0,0,0
			h0.7c0,0,0,0,0,0c0,0,0,0,0,0c0-0.4,0-0.8,0-1.2c0-0.4,0.3-0.6,0.7-0.5c0.2,0.1,0.3,0.3,0.3,0.6c0,0.7,0,1.1,0,1.1c0,0,0,0,0,0
			h0.7c0,0,0,0,0,0c0-0.6,0-1.1,0-1.4C10.5,10.1,10.1,9.7,9.6,9.7z"/>
		<linearGradient id="SVGID_15_" gradientUnits="userSpaceOnUse" x1="12.0146" y1="8.3551" x2="12.0146" y2="12.2614">
			<stop  offset="0" style="stop-color:#241796"/>
			<stop  offset="0.1803" style="stop-color:#1D3B9F"/>
			<stop  offset="0.7476" style="stop-color:#08A8BA"/>
			<stop  offset="1" style="stop-color:#00D3C5"/>
		</linearGradient>
		<path class="st14" d="M13.2,10.7c-0.1-0.6-0.6-1-1.1-1c-0.2,0-0.4,0-0.6,0.1c-0.4,0.2-0.6,0.6-0.7,1c-0.1,1,0.9,1.5,1.8,1.2
			c0.2-0.1,0.4-0.2,0.5-0.3c0,0,0,0,0,0l-0.4-0.4c0,0,0,0,0,0c-0.2,0.2-0.5,0.3-0.8,0.2c-0.2-0.1-0.3-0.2-0.4-0.4l1.7,0c0,0,0,0,0,0
			C13.3,10.9,13.3,10.8,13.2,10.7z M12.6,10.7C12.6,10.7,12.6,10.7,12.6,10.7l-1,0c0,0,0,0,0,0c0,0,0,0,0,0l0.1-0.3
			C12.1,10.1,12.4,10.2,12.6,10.7z"/>
		<linearGradient id="SVGID_16_" gradientUnits="userSpaceOnUse" x1="6.5489" y1="8.3551" x2="6.5489" y2="12.2614">
			<stop  offset="0" style="stop-color:#241796"/>
			<stop  offset="0.1803" style="stop-color:#1D3B9F"/>
			<stop  offset="0.7476" style="stop-color:#08A8BA"/>
			<stop  offset="1" style="stop-color:#00D3C5"/>
		</linearGradient>
		<circle class="st15" cx="6.5" cy="10.9" r="0.5"/>
		<linearGradient id="SVGID_17_" gradientUnits="userSpaceOnUse" x1="7.2623" y1="8.3551" x2="7.2623" y2="12.2614">
			<stop  offset="0" style="stop-color:#241796"/>
			<stop  offset="0.1803" style="stop-color:#1D3B9F"/>
			<stop  offset="0.7476" style="stop-color:#08A8BA"/>
			<stop  offset="1" style="stop-color:#00D3C5"/>
		</linearGradient>
		<path class="st16" d="M7.7,11.1l-0.3,0c0,0,0,0,0,0c0,0.1-0.1,0.3-0.2,0.4c-0.1,0.1-0.3,0.2-0.4,0.2c0,0,0,0,0,0l0,0.3
			c0,0,0,0,0,0c0,0,0,0,0,0C7,12,7.3,11.9,7.4,11.7C7.6,11.6,7.7,11.4,7.7,11.1C7.8,11.1,7.8,11.1,7.7,11.1
			C7.8,11.1,7.8,11.1,7.7,11.1z"/>
		<linearGradient id="SVGID_18_" gradientUnits="userSpaceOnUse" x1="5.8336" y1="8.3551" x2="5.8336" y2="12.2614">
			<stop  offset="0" style="stop-color:#241796"/>
			<stop  offset="0.1803" style="stop-color:#1D3B9F"/>
			<stop  offset="0.7476" style="stop-color:#08A8BA"/>
			<stop  offset="1" style="stop-color:#00D3C5"/>
		</linearGradient>
		<path class="st17" d="M6.3,11.7c-0.1,0-0.3-0.1-0.4-0.2c-0.1-0.1-0.2-0.3-0.2-0.4c0,0,0,0,0,0l-0.3,0c0,0,0,0,0,0c0,0,0,0,0,0
			c0.1,0.3,0.2,0.5,0.3,0.6C5.8,11.9,6,12,6.3,12.1c0,0,0,0,0,0c0,0,0,0,0,0L6.3,11.7C6.3,11.8,6.3,11.7,6.3,11.7z"/>
	</g>
</g>
</svg>
